<svg width="32" height="32" viewBox="0 0 32 32" fill="none" xmlns="http://www.w3.org/2000/svg">
<g clip-path="url(#clip0)">
<path d="M30.8055 15.7339C30.8055 7.47451 24.1135 0.782593 15.8542 0.782593C7.59475 0.782593 0.902832 7.47451 0.902832 15.7339C0.902832 23.1963 6.37031 29.3818 13.518 30.5044V20.0559H9.71989V15.7339H13.518V12.4398C13.518 8.69292 15.7486 6.62325 19.1651 6.62325C20.8013 6.62325 22.5123 6.91504 22.5123 6.91504V10.5926H20.6265C18.7697 10.5926 18.1903 11.7453 18.1903 12.9275V15.7339H22.3369L21.6737 20.0559H18.1903V30.5044C25.338 29.3818 30.8055 23.1963 30.8055 15.7339Z" fill="#34BF98"/>
</g>
<defs>
<clipPath id="clip0">
<rect width="30.8672" height="30.8672" fill="white" transform="translate(0.42041 0.300293)"/>
</clipPath>
</defs>
</svg>
