<svg width="31" height="32" viewBox="0 0 31 32" fill="none" xmlns="http://www.w3.org/2000/svg">
<g clip-path="url(#clip0)">
<path d="M10.8098 24.2586C10.8098 24.3791 10.6712 24.4756 10.4963 24.4756C10.2974 24.4937 10.1587 24.3972 10.1587 24.2586C10.1587 24.138 10.2974 24.0415 10.4722 24.0415C10.6531 24.0235 10.8098 24.1199 10.8098 24.2586ZM8.93487 23.9873C8.89267 24.1079 9.01324 24.2465 9.19411 24.2827C9.35086 24.343 9.53172 24.2827 9.56789 24.1621C9.60406 24.0415 9.48952 23.9029 9.30865 23.8486C9.15191 23.8064 8.97707 23.8667 8.93487 23.9873ZM11.5996 23.8848C11.4247 23.927 11.3042 24.0415 11.3223 24.1802C11.3403 24.3008 11.4971 24.3791 11.678 24.3369C11.8528 24.2947 11.9734 24.1802 11.9553 24.0596C11.9372 23.9451 11.7744 23.8667 11.5996 23.8848ZM15.5665 0.782593C7.20462 0.782593 0.808105 7.13087 0.808105 15.4928C0.808105 22.1787 5.01618 27.8999 11.0268 29.9135C11.7985 30.0522 12.0698 29.5759 12.0698 29.1841C12.0698 28.8103 12.0517 26.7485 12.0517 25.4824C12.0517 25.4824 7.83161 26.3867 6.94538 23.6858C6.94538 23.6858 6.2581 21.9315 5.26939 21.4793C5.26939 21.4793 3.8888 20.5328 5.36585 20.5509C5.36585 20.5509 6.86701 20.6715 7.69295 22.1063C9.01324 24.4334 11.2258 23.7642 12.0879 23.3663C12.2266 22.4017 12.6184 21.7325 13.0525 21.3346C9.68244 20.9608 6.28222 20.4725 6.28222 14.6728C6.28222 13.0149 6.7404 12.183 7.705 11.1219C7.54826 10.73 7.03581 9.11434 7.86175 7.02839C9.12176 6.63652 12.0216 8.65615 12.0216 8.65615C13.2273 8.31854 14.5235 8.14371 15.8077 8.14371C17.0918 8.14371 18.388 8.31854 19.5937 8.65615C19.5937 8.65615 22.4935 6.63049 23.7536 7.02839C24.5795 9.12036 24.0671 10.73 23.9103 11.1219C24.8749 12.189 25.4657 13.021 25.4657 14.6728C25.4657 20.4906 21.9148 20.9548 18.5447 21.3346C19.0994 21.8109 19.5696 22.7152 19.5696 24.132C19.5696 26.1637 19.5515 28.6777 19.5515 29.172C19.5515 29.5639 19.8288 30.0402 20.5945 29.9015C26.6232 27.8999 30.7107 22.1787 30.7107 15.4928C30.7107 7.13087 23.9284 0.782593 15.5665 0.782593ZM6.66806 21.5758C6.58968 21.6361 6.60777 21.7747 6.71026 21.8893C6.80672 21.9857 6.94538 22.0279 7.02375 21.9496C7.10213 21.8893 7.08404 21.7506 6.98155 21.6361C6.88509 21.5396 6.74643 21.4974 6.66806 21.5758ZM6.01695 21.0874C5.97475 21.1658 6.03504 21.2623 6.15561 21.3226C6.25207 21.3829 6.37265 21.3648 6.41485 21.2804C6.45705 21.202 6.39676 21.1055 6.27619 21.0452C6.15561 21.0091 6.05915 21.0272 6.01695 21.0874ZM7.97027 23.2337C7.87381 23.3121 7.90998 23.4929 8.04864 23.6075C8.1873 23.7461 8.36214 23.7642 8.44051 23.6678C8.51889 23.5894 8.48271 23.4085 8.36214 23.294C8.22951 23.1553 8.04864 23.1372 7.97027 23.2337ZM7.28299 22.3475C7.18653 22.4077 7.18653 22.5645 7.28299 22.7032C7.37945 22.8418 7.54223 22.9021 7.6206 22.8418C7.71706 22.7634 7.71706 22.6067 7.6206 22.468C7.5362 22.3294 7.37945 22.2691 7.28299 22.3475Z" fill="#34BF98"/>
</g>
<defs>
<clipPath id="clip0">
<rect width="29.9026" height="30.8672" fill="white" transform="translate(0.808105 0.300293)"/>
</clipPath>
</defs>
</svg>
