<svg width="28" height="32" viewBox="0 0 28 32" fill="none" xmlns="http://www.w3.org/2000/svg">
<g clip-path="url(#clip0)">
<path d="M13.8726 8.80083C10.0383 8.80083 6.94559 11.8936 6.94559 15.7279C6.94559 19.5622 10.0383 22.6549 13.8726 22.6549C17.7069 22.6549 20.7997 19.5622 20.7997 15.7279C20.7997 11.8936 17.7069 8.80083 13.8726 8.80083ZM13.8726 20.2314C11.3948 20.2314 9.36914 18.2117 9.36914 15.7279C9.36914 13.244 11.3888 11.2244 13.8726 11.2244C16.3565 11.2244 18.3761 13.244 18.3761 15.7279C18.3761 18.2117 16.3504 20.2314 13.8726 20.2314ZM22.6987 8.51748C22.6987 9.41576 21.9753 10.1332 21.083 10.1332C20.1847 10.1332 19.4673 9.40973 19.4673 8.51748C19.4673 7.62522 20.1908 6.90177 21.083 6.90177C21.9753 6.90177 22.6987 7.62522 22.6987 8.51748ZM27.2866 10.1573C27.1841 7.99298 26.6898 6.07583 25.1042 4.4963C23.5247 2.91676 21.6075 2.4224 19.4432 2.31389C17.2126 2.18728 10.5267 2.18728 8.29603 2.31389C6.13773 2.41637 4.22059 2.91073 2.63503 4.49027C1.04947 6.0698 0.561136 7.98695 0.452619 10.1513C0.326015 12.3819 0.326015 19.0678 0.452619 21.2984C0.555108 23.4628 1.04947 25.3799 2.63503 26.9594C4.22059 28.539 6.1317 29.0333 8.29603 29.1419C10.5267 29.2685 17.2126 29.2685 19.4432 29.1419C21.6075 29.0394 23.5247 28.545 25.1042 26.9594C26.6837 25.3799 27.1781 23.4628 27.2866 21.2984C27.4132 19.0678 27.4132 12.3879 27.2866 10.1573ZM24.4049 23.6919C23.9346 24.8735 23.0243 25.7838 21.8366 26.2601C20.0581 26.9655 15.838 26.8027 13.8726 26.8027C11.9073 26.8027 7.68109 26.9594 5.90864 26.2601C4.72701 25.7899 3.81666 24.8795 3.34039 23.6919C2.63503 21.9134 2.7978 17.6932 2.7978 15.7279C2.7978 13.7625 2.64106 9.53634 3.34039 7.76388C3.81063 6.58225 4.72098 5.6719 5.90864 5.19563C7.68712 4.49027 11.9073 4.65304 13.8726 4.65304C15.838 4.65304 20.0642 4.4963 21.8366 5.19563C23.0182 5.66587 23.9286 6.57622 24.4049 7.76388C25.1102 9.54237 24.9474 13.7625 24.9474 15.7279C24.9474 17.6932 25.1102 21.9194 24.4049 23.6919Z" fill="#34BF98"/>
</g>
<defs>
<clipPath id="clip0">
<rect width="27.0088" height="30.8672" fill="white" transform="translate(0.362061 0.300293)"/>
</clipPath>
</defs>
</svg>
