<svg width="31" height="31" viewBox="0 0 31 31" fill="none" xmlns="http://www.w3.org/2000/svg">
<g clip-path="url(#clip0)">
<path d="M27.6943 9.14658C27.7139 9.42077 27.7139 9.69502 27.7139 9.96921C27.7139 18.3323 21.3486 27.9685 9.71456 27.9685C6.13034 27.9685 2.80078 26.9305 0 25.1286C0.509249 25.1874 0.998844 25.207 1.52769 25.207C4.48509 25.207 7.20756 24.2081 9.38159 22.5041C6.6004 22.4454 4.26969 20.6239 3.46666 18.1169C3.8584 18.1756 4.25009 18.2148 4.66143 18.2148C5.2294 18.2148 5.79743 18.1364 6.32622 17.9994C3.42753 17.4118 1.25344 14.8656 1.25344 11.7907V11.7124C2.0956 12.1824 3.07497 12.4762 4.11294 12.5153C2.40897 11.3793 1.29263 9.44037 1.29263 7.24674C1.29263 6.07162 1.60594 4.9944 2.15438 4.05427C5.26853 7.89309 9.94956 10.4 15.1985 10.6743C15.1006 10.2042 15.0418 9.71461 15.0418 9.22496C15.0418 5.73865 17.8622 2.89874 21.368 2.89874C23.1895 2.89874 24.8347 3.66259 25.9903 4.89649C27.42 4.6223 28.791 4.09346 30.0054 3.3688C29.5352 4.83777 28.5364 6.07168 27.2242 6.85505C28.4973 6.71802 29.7312 6.3654 30.8671 5.8758C30.0055 7.12924 28.9282 8.24559 27.6943 9.14658Z" fill="#34BF98"/>
</g>
<defs>
<clipPath id="clip0">
<rect width="30.8672" height="30.8672" fill="white"/>
</clipPath>
</defs>
</svg>
