<svg width="28" height="32" viewBox="0 0 28 32" fill="none" xmlns="http://www.w3.org/2000/svg">
<g clip-path="url(#clip0)">
<path d="M23.8549 6.15421C21.3288 3.62213 17.9648 2.22949 14.3897 2.22949C7.01055 2.22949 1.0059 8.23413 1.0059 15.6133C1.0059 17.9706 1.62084 20.2736 2.79042 22.3053L0.891357 29.2383L7.9872 27.3754C9.94052 28.4425 12.141 29.0032 14.3837 29.0032H14.3897C21.7629 29.0032 27.9002 22.9986 27.9002 15.6194C27.9002 12.0443 26.3809 8.68629 23.8549 6.15421ZM14.3897 26.7484C12.3882 26.7484 10.4289 26.2119 8.72271 25.1991L8.31879 24.9579L4.11071 26.0612L5.23206 21.9556L4.9668 21.5336C3.85148 19.7611 3.26669 17.7174 3.26669 15.6133C3.26669 9.48209 8.2585 4.49028 14.3958 4.49028C17.368 4.49028 20.1593 5.6478 22.2573 7.75183C24.3553 9.85587 25.6454 12.6472 25.6394 15.6194C25.6394 21.7566 20.521 26.7484 14.3897 26.7484ZM20.4908 18.4167C20.1593 18.2479 18.5134 17.44 18.2059 17.3315C17.8985 17.217 17.6754 17.1627 17.4524 17.5003C17.2293 17.8379 16.5902 18.5855 16.3913 18.8146C16.1984 19.0377 15.9994 19.0678 15.6678 18.899C13.7025 17.9163 12.4123 17.1446 11.1161 14.92C10.7725 14.3292 11.4598 14.3714 12.0988 13.0933C12.2073 12.8702 12.1531 12.6773 12.0687 12.5085C11.9843 12.3397 11.3151 10.6939 11.0378 10.0247C10.7665 9.37357 10.4891 9.464 10.2842 9.45194C10.0912 9.43989 9.86818 9.43989 9.64511 9.43989C9.42205 9.43989 9.06032 9.52429 8.75286 9.85587C8.44539 10.1935 7.58328 11.0013 7.58328 12.6472C7.58328 14.293 8.783 15.8846 8.94578 16.1077C9.11458 16.3308 11.303 19.7069 14.661 21.1598C16.7832 22.0762 17.6151 22.1545 18.6762 21.9978C19.3213 21.9013 20.6536 21.1899 20.9309 20.4062C21.2083 19.6225 21.2083 18.9533 21.1239 18.8146C21.0455 18.6639 20.8224 18.5795 20.4908 18.4167Z" fill="#34BF98"/>
</g>
<defs>
<clipPath id="clip0">
<rect width="27.0088" height="30.8672" fill="white" transform="translate(0.891357 0.300293)"/>
</clipPath>
</defs>
</svg>
